<?xml version="1.0" encoding="utf-8"?>
<!-- Generator: Adobe Illustrator 23.0.6, SVG Export Plug-In . SVG Version: 6.00 Build 0)  -->
<svg version="1.1" id="Vrstva_1" xmlns="http://www.w3.org/2000/svg" xmlns:xlink="http://www.w3.org/1999/xlink" x="0px"
     y="0px"
     viewBox="0 0 434 101" style="enable-background:new 0 0 434 101;" xml:space="preserve">
<style type="text/css">
	.st0{enable-background:new    ;}
	.st1{fill:#4EAD33;}
	.st2{fill:#E6007E;}
</style>
    <g class="st0">
	<path class="st1" d="M79.5,83.8l2.4,6.9l2.3-6.9c0.2-0.8,0.8-1.1,1.3-1.1c0.8,0,1.5,0.6,1.4,0.8l-3.7,9.2c-0.3,0.6-0.7,0.9-1.5,0.9
		c-0.8,0-1.1-0.2-1.4-0.9l-3.8-9.2c-0.1-0.2,0.7-0.8,1.5-0.8C78.7,82.7,79.2,83.1,79.5,83.8z"/>
        <path class="st1" d="M88.1,92.1v-8c0-0.9,0.5-1.4,1.3-1.4h6c0.8,0,1.1,0.4,1.1,1v0.1c0,0.7-0.4,1-1.1,1h-4.8V87h3.5
		c0.8,0,1.1,0.3,1.1,0.9V88c0,0.6-0.3,1-1.1,1h-3.5v2.3h4.9c0.8,0,1.1,0.3,1.1,1v0.1c0,0.7-0.4,1.1-1.1,1.1h-6.1
		C88.6,93.5,88.1,93,88.1,92.1z"/>
        <path class="st1" d="M98,92.4v-8.5c0-0.8,0.4-1.2,1.1-1.2h0.3c0.6,0,0.9,0.2,1.2,0.7l4.6,6.4v-6c0-0.7,0.3-1.1,1-1.1h0.2
		c0.7,0,1,0.4,1,1.1v8.5c0,0.8-0.4,1.2-1,1.2h-0.2c-0.6,0-0.8-0.2-1.2-0.6l-4.8-6.6v6.1c0,0.7-0.3,1.1-1.1,1.1h-0.2
		C98.4,93.6,98,93.2,98,92.4z"/>
        <path class="st1" d="M109.5,92.1v-8c0-0.9,0.5-1.4,1.3-1.4h2.7c3.6,0,5.8,2,5.8,5.3c0,3.3-2.2,5.4-5.9,5.4h-2.6
		C110.1,93.5,109.5,92.9,109.5,92.1z M113.4,91.4c2.1,0,3.4-1.2,3.4-3.3c0-2.1-1.3-3.3-3.4-3.3H112v6.6H113.4z"/>
        <path class="st1" d="M120.5,88.1c0-3.3,2.3-5.6,5.5-5.6c3.3,0,5.5,2.3,5.5,5.6c0,3.3-2.3,5.6-5.5,5.6S120.5,91.4,120.5,88.1z
		 M129.1,88.1c0-2-1.3-3.4-3.1-3.4s-3.1,1.4-3.1,3.4c0,2,1.3,3.4,3.1,3.4S129.1,90.2,129.1,88.1z"/>
        <path class="st1" d="M138.8,92.6l-2.3-2.9h-0.9v2.8c0,0.7-0.4,1.1-1.1,1.1h-0.3c-0.7,0-1-0.5-1-1.3v-8.1c0-0.9,0.5-1.4,1.3-1.4h3.2
		c2.8,0,4.2,1.2,4.2,3.4c0,1.7-1,2.9-2.8,3.2l2.8,3.4c0.1,0.1-0.4,0.9-1.4,0.9C139.7,93.6,139.3,93.3,138.8,92.6z M135.5,87.9h1.9
		c1.3,0,1.9-0.6,1.9-1.6c0-1-0.7-1.6-2-1.6h-1.8V87.9z"/>
        <path class="st1" d="M146.2,92.4v-8.5c0-0.8,0.4-1.2,1.2-1.2h0.7c0.8,0,1,0.2,1.3,0.9l2.2,5.1l2.2-5.1c0.3-0.7,0.6-0.9,1.2-0.9h0.6
		c0.8,0,1.2,0.4,1.2,1.2v8.5c0,0.7-0.3,1.1-1,1.1h-0.4c-0.7,0-1-0.4-1-1.1v-6.4l-1.8,4.3c-0.2,0.4-0.3,0.8-1.2,0.8
		c-1,0-1-0.3-1.2-0.8l-1.8-4.3v6.3c0,0.7-0.2,1.1-1,1.1h-0.4C146.5,93.6,146.2,93.2,146.2,92.4z"/>
        <path class="st1" d="M165.2,90.8h-3.9l-0.6,1.7c-0.3,0.8-0.8,1.1-1.3,1.1c-0.7,0-1.4-0.5-1.3-0.7l3.7-9.5c0.1-0.4,0.5-0.7,1.6-0.7
		c1.1,0,1.4,0.3,1.6,0.7l3.8,9.5c0.1,0.2-0.6,0.8-1.3,0.8c-0.5,0-1.1-0.3-1.4-1.2L165.2,90.8z M161.7,88.9h3l-1.5-3.9L161.7,88.9z"
        />
        <path class="st1" d="M169.7,92.4v-8.5c0-0.8,0.4-1.2,1.1-1.2h0.3c0.6,0,0.9,0.2,1.2,0.7l4.6,6.4v-6c0-0.7,0.3-1.1,1-1.1h0.2
		c0.7,0,1,0.4,1,1.1v8.5c0,0.8-0.4,1.2-1,1.2H178c-0.6,0-0.8-0.2-1.2-0.6l-4.8-6.6v6.1c0,0.7-0.3,1.1-1.1,1.1h-0.2
		C170,93.6,169.7,93.2,169.7,92.4z"/>
        <path class="st1" d="M187.6,90.8h-3.9l-0.6,1.7c-0.3,0.8-0.8,1.1-1.3,1.1c-0.7,0-1.4-0.5-1.3-0.7l3.7-9.5c0.1-0.4,0.5-0.7,1.6-0.7
		c1.1,0,1.4,0.3,1.6,0.7l3.8,9.5c0.1,0.2-0.6,0.8-1.3,0.8c-0.5,0-1.1-0.3-1.4-1.2L187.6,90.8z M184.1,88.9h3l-1.5-3.9L184.1,88.9z"
        />
        <path class="st1" d="M200,92.2c-0.6,0.9-1.8,1.5-3.3,1.5c-3.1,0-5.1-2.3-5.1-5.5c0-3.3,2.3-5.6,5.7-5.6c2.6,0,4.2,1.2,4.2,2.3
		c0,1-1.2,1.2-1.3,1.2c-0.6-0.9-1.7-1.4-2.8-1.4c-1.9,0-3.3,1.4-3.3,3.6c0,2.1,1.2,3.6,3.2,3.6c1.5,0,2.6-0.8,2.7-2v-0.3H198
		c-0.8,0-1.2-0.2-1.2-0.9v-0.1c0-0.7,0.4-0.9,1.2-0.9h3c0.8,0,1,0.4,1,1.2v4.5c0,0.1-0.4,0.2-0.8,0.2
		C200.7,93.6,200.1,93.3,200,92.2z"/>
        <path class="st1" d="M203.9,92.1v-8c0-0.9,0.5-1.4,1.3-1.4h6c0.8,0,1.1,0.4,1.1,1v0.1c0,0.7-0.4,1-1.1,1h-4.8V87h3.5
		c0.8,0,1.1,0.3,1.1,0.9V88c0,0.6-0.3,1-1.1,1h-3.5v2.3h4.9c0.8,0,1.1,0.3,1.1,1v0.1c0,0.7-0.4,1.1-1.1,1.1h-6.1
		C204.3,93.5,203.9,93,203.9,92.1z"/>
        <path class="st1" d="M213.8,92.4v-8.5c0-0.8,0.4-1.2,1.2-1.2h0.7c0.8,0,1,0.2,1.3,0.9l2.2,5.1l2.2-5.1c0.3-0.7,0.6-0.9,1.2-0.9h0.6
		c0.8,0,1.2,0.4,1.2,1.2v8.5c0,0.7-0.3,1.1-1,1.1h-0.4c-0.7,0-1-0.4-1-1.1v-6.4l-1.8,4.3c-0.2,0.4-0.3,0.8-1.2,0.8
		c-1,0-1-0.3-1.2-0.8l-1.8-4.3v6.3c0,0.7-0.2,1.1-1,1.1h-0.4C214.1,93.6,213.8,93.2,213.8,92.4z"/>
        <path class="st1" d="M226.4,92.1v-8c0-0.9,0.5-1.4,1.3-1.4h6c0.8,0,1.1,0.4,1.1,1v0.1c0,0.7-0.4,1-1.1,1h-4.8V87h3.5
		c0.8,0,1.1,0.3,1.1,0.9V88c0,0.6-0.3,1-1.1,1h-3.5v2.3h4.9c0.8,0,1.1,0.3,1.1,1v0.1c0,0.7-0.4,1.1-1.1,1.1h-6.1
		C226.9,93.5,226.4,93,226.4,92.1z"/>
        <path class="st1" d="M236.4,92.4v-8.5c0-0.8,0.4-1.2,1.1-1.2h0.3c0.6,0,0.9,0.2,1.2,0.7l4.6,6.4v-6c0-0.7,0.3-1.1,1-1.1h0.2
		c0.7,0,1,0.4,1,1.1v8.5c0,0.8-0.4,1.2-1,1.2h-0.2c-0.6,0-0.8-0.2-1.2-0.6l-4.8-6.6v6.1c0,0.7-0.3,1.1-1.1,1.1h-0.2
		C236.7,93.6,236.4,93.2,236.4,92.4z"/>
        <path class="st1" d="M247.2,83.8L247.2,83.8c0-0.7,0.4-1.1,1.1-1.1h7.3c0.7,0,1.1,0.3,1.1,1v0.1c0,0.7-0.4,1.1-1.1,1.1h-2.4v7.6
		c0,0.7-0.4,1.1-1.1,1.1h-0.3c-0.7,0-1-0.4-1-1.1v-7.6h-2.4C247.6,84.9,247.2,84.5,247.2,83.8z"/>
        <path class="st1" d="M260.2,91.5c0-0.7,0.8-1.3,0.9-1.2c0.6,0.8,1.9,1.5,3.2,1.5c1.3,0,2-0.5,2-1.3c0-1-1.1-1.1-2.3-1.4
		c-1.7-0.4-3.5-1-3.5-3.2c0-2,1.6-3.3,4.2-3.3s3.9,1,3.9,2c0,0.8-0.9,1.3-1,1.3c-0.6-0.7-1.7-1.3-2.9-1.3c-1.2,0-1.9,0.5-1.9,1.3
		c0,0.9,1,1,2.3,1.3c1.9,0.4,3.6,1.2,3.6,3.3c0,2.1-1.6,3.4-4.4,3.4C261.5,93.7,260.2,92.5,260.2,91.5z"/>
        <path class="st1" d="M273.2,92.4v-3.3l-3.8-5.5c-0.1-0.1,0.3-0.9,1.6-0.9c0.4,0,0.8,0.3,1.2,0.8l2.3,3.7l2.3-3.7
		c0.4-0.6,0.8-0.9,1.2-0.9c1.1,0,1.6,0.8,1.5,0.9l-3.7,5.5v3.3c0,0.7-0.4,1.1-1.1,1.1h-0.3C273.6,93.6,273.2,93.2,273.2,92.4z"/>
        <path class="st1" d="M280,91.5c0-0.7,0.8-1.3,0.9-1.2c0.6,0.8,1.9,1.5,3.2,1.5c1.3,0,2-0.5,2-1.3c0-1-1.1-1.1-2.3-1.4
		c-1.7-0.4-3.5-1-3.5-3.2c0-2,1.6-3.3,4.2-3.3s3.9,1,3.9,2c0,0.8-0.9,1.3-1,1.3c-0.6-0.7-1.7-1.3-2.9-1.3c-1.2,0-1.9,0.5-1.9,1.3
		c0,0.9,1,1,2.3,1.3c1.9,0.4,3.6,1.2,3.6,3.3c0,2.1-1.6,3.4-4.4,3.4C281.3,93.7,280,92.5,280,91.5z"/>
        <path class="st1" d="M289.3,83.8L289.3,83.8c0-0.7,0.4-1.1,1.1-1.1h7.3c0.7,0,1.1,0.3,1.1,1v0.1c0,0.7-0.4,1.1-1.1,1.1h-2.4v7.6
		c0,0.7-0.4,1.1-1.1,1.1h-0.3c-0.7,0-1-0.4-1-1.1v-7.6h-2.4C289.7,84.9,289.3,84.5,289.3,83.8z"/>
        <path class="st1" d="M300,92.1v-8c0-0.9,0.5-1.4,1.3-1.4h6c0.8,0,1.1,0.4,1.1,1v0.1c0,0.7-0.4,1-1.1,1h-4.8V87h3.5
		c0.8,0,1.1,0.3,1.1,0.9V88c0,0.6-0.3,1-1.1,1h-3.5v2.3h4.9c0.8,0,1.1,0.3,1.1,1v0.1c0,0.7-0.4,1.1-1.1,1.1h-6.1
		C300.5,93.5,300,93,300,92.1z"/>
        <path class="st1" d="M310,92.4v-8.5c0-0.8,0.4-1.2,1.2-1.2h0.7c0.8,0,1,0.2,1.3,0.9l2.2,5.1l2.2-5.1c0.3-0.7,0.6-0.9,1.2-0.9h0.6
		c0.8,0,1.2,0.4,1.2,1.2v8.5c0,0.7-0.3,1.1-1,1.1h-0.4c-0.7,0-1-0.4-1-1.1v-6.4l-1.8,4.3c-0.2,0.4-0.3,0.8-1.2,0.8
		c-1,0-1-0.3-1.2-0.8l-1.8-4.3v6.3c0,0.7-0.2,1.1-1,1.1H311C310.3,93.6,310,93.2,310,92.4z"/>
</g>
    <g>
	<path class="st2" d="M77.4,61V16.8c0-4.6,2.6-7.2,6.8-7.2h14.9c15.1,0,23.4,6.7,23.4,19.3c0,12.7-8,19.2-23.4,19.2h-8.6V61
		c0,3.7-1.9,5.9-5.6,5.9H83C79.4,66.9,77.4,64.8,77.4,61z M90.2,38.2h8.6c7.1,0,10.9-3.3,10.9-9.3s-3.8-9.2-11-9.2h-8.5V38.2z"/>
        <path class="st2" d="M126.8,10.1c0-3.9,2.6-6.3,7-6.3c4.3,0,7,2.3,7,6.3s-2.6,6.3-7,6.3C129.4,16.4,126.8,14,126.8,10.1z M127.5,61
		V29.1c0-4.5,2.4-6,5.5-6h1.3c3.3,0,5.5,1.4,5.5,6V61c0,4.5-2.3,5.9-5.5,5.9H133C129.9,66.9,127.5,65.5,127.5,61z"/>
        <path class="st2" d="M148.3,61V6.7c0-0.4,2.2-1.4,4.7-1.4c3.7,0,7.8,1.9,7.8,10V61c0,4.5-2.3,5.9-5.5,5.9H154
		C150.6,66.9,148.3,65.5,148.3,61z"/>
        <path class="st2" d="M198.4,60.1c-3,4.4-7.4,7.6-14.1,7.6c-11.3,0-15.9-7.9-15.9-17.8V29.1c0-4.5,2.3-6,5.5-6h1.3
		c3.3,0,5.6,1.4,5.6,6V48c0,5.7,2.9,9.2,8.1,9.2c4.1,0,7.5-2.3,9.2-5.6V29.1c0-4.5,2.3-6,5.5-6h1.2c3.3,0,5.6,1.4,5.6,6v36.4
		c0,0.4-2.1,1.4-4.7,1.4C202.8,66.9,199.3,65.5,198.4,60.1z"/>
        <path class="st2" d="M218.5,61V6.7c0-0.4,2.2-1.4,4.7-1.4c3.7,0,7.8,1.9,7.8,10V61c0,4.5-2.3,5.9-5.5,5.9h-1.3
		C220.9,66.9,218.5,65.5,218.5,61z"/>
        <path class="st2" d="M239,61V6.7c0-0.4,2.2-1.4,4.7-1.4c3.7,0,7.8,1.9,7.8,10v26.9L263.6,27c2-2.9,4.7-4,6.9-4c4,0,7,3.6,6.6,4.2
		L263.5,44l15.3,18.8c0.4,0.6-2.8,4.2-6.8,4.2c-2.3,0-4.8-1-7-4l-13.5-16.3V61c0,4.5-2.3,5.9-5.5,5.9h-1.3
		C241.3,66.9,239,65.5,239,61z"/>
        <path class="st2" d="M280.3,55.1c0-9.9,8.8-14.4,27.7-14.6h1.4c0-5.5-3.1-8.5-8.8-8.5c-6,0-9.1,3.3-10.7,6.6c0,0.2-8,0.4-8-5.3
		c0-5.4,6.3-10.7,19.5-10.7c13.6,0,20.3,6.2,20.3,17.7v25.5c0,0.6-2.3,1.4-4.7,1.4c-4,0-6.6-2.1-7.3-6.8c-3.1,4.5-8.5,7.1-14.9,7.1
		C285.8,67.5,280.3,62.4,280.3,55.1z M309.4,49.7v-2.5l-2.3,0.1c-9.8,0.3-14.9,2.2-14.9,6.9c0,3.2,2.6,5.2,6.7,5.2
		C305.1,59.4,309.4,55.3,309.4,49.7z"/>
        <path class="st2" d="M328.1,61.3v-1.2c0-3.9,1.9-5.8,5.8-5.8h1.6c4.1,0,6,1.9,6,5.8v1.2c0,3.9-1.9,5.8-6,5.8h-1.6
		C330.1,67.1,328.1,65.2,328.1,61.3z"/>
        <path class="st2" d="M346,45c0-13,9.5-22.4,22.6-22.4s18.3,7.5,18.3,11.6c0,5-6.6,5.9-6.9,5.5c-1.7-4.1-4.8-7.1-10.9-7.1
		c-6.8,0-11.7,5.2-11.7,12.4c0,7.4,4.9,12.7,11.7,12.7c5.9,0,9.2-3,10.9-7.1c0.2-0.5,6.9,0.3,6.9,5.5c0,4.1-5.5,11.5-18.3,11.5
		C355.4,67.7,346,58.3,346,45z"/>
        <path class="st2" d="M389.9,62.1v-0.7c0-2.8,0.8-3.7,2.7-5.9l19.2-22.4h-16.6c-3.4,0-5-1.4-5-4.5V28c0-2.9,1.6-4.5,5-4.5h27.7
		c3.3,0,4.8,2.1,4.8,4.3v0.6c0,2.6-0.8,3.6-2.7,5.7l-19.7,22.7h18.2c3.4,0,5,1.4,5,4.5v0.5c0,3-1.6,4.6-5,4.6h-28.8
		C391.2,66.5,389.9,64.3,389.9,62.1z"/>
</g>
    <g>
	<path class="st1" d="M55.3,30H44.2V18.2c0-4.8-3.9-8.6-8.7-8.6c-4.8,0-8.7,3.9-8.7,8.6V30H15.2c-4.8,0-8.6,3.9-8.6,8.7
		c0,4.8,3.9,8.7,8.6,8.7h11.5v10.8c0,4.8,3.9,8.6,8.7,8.6c4.8,0,8.7-3.9,8.7-8.6V47.4h11.1c4.8,0,8.6-3.9,8.6-8.7
		C63.9,33.9,60,30,55.3,30z"/>
</g>
</svg>
